<?xml version="1.0" encoding="utf-8"?>
<!-- Generator: Adobe Illustrator 16.0.0, SVG Export Plug-In . SVG Version: 6.00 Build 0)  -->
<!DOCTYPE svg PUBLIC "-//W3C//DTD SVG 1.1//EN" "http://www.w3.org/Graphics/SVG/1.1/DTD/svg11.dtd">
<svg version="1.1" xmlns="http://www.w3.org/2000/svg" xmlns:xlink="http://www.w3.org/1999/xlink" x="0px" y="0px" width="160px"
	 height="30.744px" viewBox="0 0 160 30.744" enable-background="new 0 0 160 30.744" xml:space="preserve">
<g id="Layer_1">
</g>
<g id="Layer_2" display="none">
</g>
<g id="Layer_5">
</g>
<g id="Layer_3" display="none">
	<path display="inline" fill="#FFFFFF" d="M58.113,23.418h-3.83v-8.401c0-1.181-0.219-2.053-0.656-2.615
		c-0.438-0.562-1.058-0.843-1.857-0.843c-0.344,0-0.706,0.076-1.086,0.229c-0.382,0.153-0.744,0.367-1.086,0.644
		c-0.343,0.275-0.658,0.604-0.943,0.985c-0.286,0.382-0.496,0.801-0.628,1.257v8.745h-3.829V2.557h3.829v8.659
		c0.553-0.973,1.301-1.719,2.244-2.244c0.942-0.523,1.986-0.785,3.129-0.785c0.971,0,1.761,0.167,2.372,0.5
		c0.609,0.334,1.085,0.776,1.429,1.329c0.343,0.553,0.581,1.182,0.714,1.886c0.133,0.705,0.2,1.429,0.2,2.172V23.418z"/>
	<path display="inline" fill="#FFFFFF" d="M66.971,23.704c-0.723,0-1.399-0.119-2.028-0.357c-0.628-0.237-1.172-0.571-1.628-1
		c-0.458-0.429-0.815-0.929-1.072-1.5c-0.258-0.572-0.386-1.2-0.386-1.887c0-0.705,0.157-1.357,0.471-1.957
		c0.315-0.601,0.752-1.109,1.315-1.529c0.562-0.419,1.233-0.747,2.015-0.985c0.78-0.238,1.637-0.357,2.572-0.357
		c0.667,0,1.318,0.057,1.957,0.172c0.638,0.113,1.206,0.275,1.701,0.485v-0.857c0-0.99-0.281-1.753-0.844-2.286
		c-0.562-0.533-1.395-0.801-2.5-0.801c-0.799,0-1.581,0.144-2.343,0.429c-0.763,0.286-1.543,0.706-2.343,1.258l-1.172-2.43
		c1.925-1.275,4.001-1.914,6.23-1.914c2.153,0,3.824,0.529,5.016,1.586c1.19,1.058,1.786,2.587,1.786,4.587v4.658
		c0,0.399,0.072,0.686,0.214,0.857c0.143,0.171,0.376,0.267,0.7,0.286v3.257c-0.647,0.133-1.21,0.2-1.686,0.2
		c-0.725,0-1.282-0.162-1.672-0.485c-0.391-0.324-0.633-0.753-0.729-1.286l-0.085-0.828c-0.667,0.876-1.477,1.542-2.429,2
		C69.077,23.476,68.058,23.704,66.971,23.704z M68.058,20.903c0.647,0,1.263-0.114,1.843-0.343c0.582-0.229,1.034-0.533,1.357-0.914
		c0.42-0.324,0.63-0.687,0.63-1.086v-1.715c-0.458-0.172-0.954-0.31-1.487-0.414c-0.534-0.105-1.047-0.158-1.543-0.158
		c-0.991,0-1.801,0.225-2.429,0.673c-0.628,0.447-0.943,1.014-0.943,1.7c0,0.647,0.248,1.186,0.744,1.613
		C66.724,20.688,67.333,20.903,68.058,20.903z"/>
	<path display="inline" fill="#FFFFFF" d="M86.375,23.704c-1.257,0-2.486-0.2-3.686-0.601c-1.2-0.399-2.229-0.972-3.086-1.715
		l1.429-2.4c0.914,0.647,1.805,1.139,2.672,1.472c0.866,0.334,1.729,0.5,2.586,0.5c0.762,0,1.362-0.143,1.8-0.429
		c0.438-0.285,0.657-0.694,0.657-1.228c0-0.534-0.257-0.925-0.771-1.172c-0.515-0.248-1.353-0.534-2.515-0.857
		c-0.971-0.268-1.801-0.523-2.486-0.771c-0.685-0.248-1.239-0.529-1.658-0.843c-0.418-0.315-0.724-0.677-0.914-1.086
		c-0.191-0.41-0.286-0.901-0.286-1.473c0-0.762,0.147-1.447,0.443-2.058c0.295-0.609,0.709-1.129,1.243-1.558
		s1.158-0.757,1.872-0.985s1.49-0.343,2.33-0.343c1.122,0,2.175,0.162,3.156,0.485c0.981,0.324,1.882,0.848,2.701,1.572
		l-1.543,2.314c-0.763-0.572-1.501-0.99-2.215-1.258c-0.715-0.267-1.425-0.399-2.129-0.399c-0.647,0-1.191,0.133-1.629,0.399
		c-0.438,0.268-0.658,0.696-0.658,1.286c0,0.267,0.053,0.485,0.158,0.658c0.104,0.17,0.271,0.323,0.5,0.456
		c0.229,0.134,0.528,0.263,0.9,0.387c0.372,0.123,0.833,0.252,1.386,0.386c1.028,0.267,1.91,0.533,2.644,0.8
		c0.733,0.268,1.333,0.571,1.801,0.915c0.467,0.343,0.809,0.737,1.028,1.186c0.219,0.447,0.329,0.985,0.329,1.614
		c0,1.468-0.544,2.625-1.63,3.473C89.72,23.28,88.242,23.704,86.375,23.704z"/>
	<path display="inline" fill="#FFFFFF" d="M110.267,23.418h-3.83v-8.401c0-1.181-0.219-2.053-0.657-2.615
		c-0.438-0.562-1.058-0.843-1.857-0.843c-0.344,0-0.705,0.076-1.086,0.229c-0.382,0.153-0.743,0.367-1.086,0.644
		c-0.343,0.275-0.657,0.604-0.943,0.985c-0.286,0.382-0.496,0.801-0.629,1.257v8.745H96.35V2.557h3.828v8.659
		c0.553-0.973,1.301-1.719,2.244-2.244c0.942-0.523,1.986-0.785,3.129-0.785c0.972,0,1.762,0.167,2.372,0.5
		c0.609,0.334,1.085,0.776,1.429,1.329c0.343,0.553,0.581,1.182,0.715,1.886c0.133,0.705,0.2,1.429,0.2,2.172V23.418z"/>
	<path display="inline" fill="#FFFFFF" d="M123.869,22.646c-0.515,0.229-1.143,0.457-1.886,0.686
		c-0.743,0.229-1.524,0.343-2.344,0.343c-0.533,0-1.033-0.066-1.5-0.199s-0.876-0.348-1.229-0.644
		c-0.353-0.295-0.633-0.675-0.843-1.143c-0.21-0.467-0.313-1.033-0.313-1.7v-8.603h-1.973V8.444h1.973V3.586h3.829v4.858h3.144
		v2.942h-3.144v7.316c0,0.533,0.139,0.909,0.414,1.129s0.615,0.329,1.015,0.329s0.79-0.067,1.172-0.201
		c0.381-0.133,0.686-0.247,0.915-0.343L123.869,22.646z"/>
	<path display="inline" fill="#FFFFFF" d="M131.385,23.704c-0.724,0-1.4-0.119-2.028-0.357c-0.629-0.237-1.173-0.571-1.629-1
		c-0.458-0.429-0.815-0.929-1.071-1.5c-0.258-0.572-0.387-1.2-0.387-1.887c0-0.705,0.157-1.357,0.471-1.957
		c0.315-0.601,0.753-1.109,1.315-1.529c0.562-0.419,1.233-0.747,2.015-0.985c0.78-0.238,1.638-0.357,2.572-0.357
		c0.666,0,1.318,0.057,1.957,0.172c0.639,0.113,1.205,0.275,1.701,0.485v-0.857c0-0.99-0.281-1.753-0.844-2.286
		c-0.562-0.533-1.396-0.801-2.501-0.801c-0.799,0-1.58,0.144-2.343,0.429c-0.763,0.286-1.543,0.706-2.344,1.258l-1.172-2.43
		c1.925-1.275,4.001-1.914,6.23-1.914c2.153,0,3.824,0.529,5.016,1.586c1.189,1.058,1.786,2.587,1.786,4.587v4.658
		c0,0.399,0.071,0.686,0.214,0.857c0.144,0.171,0.376,0.267,0.7,0.286v3.257c-0.647,0.133-1.21,0.2-1.686,0.2
		c-0.725,0-1.281-0.162-1.672-0.485c-0.392-0.324-0.634-0.753-0.729-1.286l-0.085-0.828c-0.667,0.876-1.477,1.542-2.429,2
		C133.49,23.476,132.471,23.704,131.385,23.704z M132.471,20.903c0.647,0,1.263-0.114,1.843-0.343
		c0.582-0.229,1.034-0.533,1.357-0.914c0.42-0.324,0.63-0.687,0.63-1.086v-1.715c-0.458-0.172-0.953-0.31-1.487-0.414
		c-0.533-0.105-1.047-0.158-1.542-0.158c-0.992,0-1.801,0.225-2.43,0.673c-0.628,0.447-0.943,1.014-0.943,1.7
		c0,0.647,0.248,1.186,0.744,1.613C131.137,20.688,131.746,20.903,132.471,20.903z"/>
	<path display="inline" fill="#FFFFFF" d="M150.989,23.504c-1.011,0-1.925-0.199-2.744-0.601c-0.819-0.399-1.529-0.947-2.129-1.643
		c-0.601-0.695-1.062-1.501-1.387-2.415c-0.323-0.914-0.485-1.887-0.485-2.914c0-1.087,0.172-2.096,0.515-3.03
		c0.343-0.933,0.818-1.752,1.429-2.457c0.609-0.705,1.343-1.258,2.2-1.657c0.857-0.401,1.801-0.601,2.829-0.601
		c1.162,0,2.182,0.262,3.059,0.785c0.875,0.525,1.6,1.225,2.171,2.102V8.444h3.344v14.26c0,1.104-0.21,2.095-0.629,2.972
		c-0.418,0.876-0.995,1.619-1.729,2.229c-0.733,0.61-1.61,1.076-2.629,1.401c-1.02,0.323-2.129,0.485-3.329,0.485
		c-1.639,0-3.015-0.271-4.129-0.814c-1.115-0.543-2.072-1.31-2.872-2.301l2.086-2.028c0.571,0.704,1.29,1.257,2.156,1.657
		c0.868,0.4,1.786,0.6,2.759,0.6c0.591,0,1.157-0.081,1.7-0.242c0.543-0.163,1.023-0.415,1.443-0.758
		c0.419-0.343,0.747-0.781,0.985-1.313c0.238-0.534,0.357-1.164,0.357-1.887v-1.887c-0.495,0.857-1.191,1.521-2.086,1.987
		C152.979,23.271,152.018,23.504,150.989,23.504z M152.275,20.446c0.418,0,0.818-0.066,1.199-0.2
		c0.381-0.133,0.734-0.314,1.058-0.543c0.324-0.229,0.609-0.495,0.857-0.801c0.248-0.305,0.438-0.628,0.571-0.971v-3.572
		c-0.343-0.876-0.882-1.582-1.614-2.115c-0.734-0.532-1.5-0.8-2.301-0.8c-0.59,0-1.124,0.129-1.601,0.386
		c-0.477,0.258-0.885,0.601-1.229,1.029c-0.343,0.429-0.605,0.919-0.786,1.471c-0.181,0.553-0.271,1.124-0.271,1.715
		c0,0.61,0.105,1.183,0.314,1.715c0.209,0.533,0.501,1,0.872,1.401c0.371,0.399,0.804,0.714,1.3,0.941
		C151.141,20.332,151.684,20.446,152.275,20.446z"/>
	<path display="inline" fill="none" stroke="#FFFFFF" stroke-miterlimit="10" d="M29.461,8.276l1.118-3.955h-3.586l1.103-3.912
		h-4.161l-1.104,3.912h-9.31l1.103-3.912h-4.161L9.36,4.321H5.651L4.53,8.276h3.712l-2.628,9.284H1.908L0.79,21.516h3.707
		l-1.138,4.028h4.16l1.139-4.028h9.31l-1.14,4.028h4.162l1.139-4.028h3.589l1.118-3.955h-3.588l2.626-9.284H29.461z M19.088,17.561
		H9.777l2.625-9.284h9.311L19.088,17.561z"/>
</g>
<g id="sprinkles">
	<g>
		<path fill="#FFFFFF" d="M45.698,23.443c-1.232,0-2.436-0.196-3.612-0.588c-1.176-0.393-2.184-0.952-3.024-1.681l1.4-2.352
			c0.896,0.635,1.768,1.115,2.618,1.441c0.85,0.327,1.694,0.49,2.534,0.49c0.747,0,1.334-0.14,1.764-0.42
			c0.429-0.28,0.644-0.681,0.644-1.204c0-0.522-0.252-0.905-0.756-1.147c-0.504-0.243-1.326-0.522-2.464-0.84
			c-0.952-0.262-1.764-0.514-2.436-0.757c-0.672-0.242-1.213-0.518-1.624-0.825c-0.411-0.309-0.709-0.663-0.896-1.064
			s-0.28-0.882-0.28-1.442c0-0.746,0.144-1.418,0.434-2.016c0.289-0.597,0.695-1.106,1.218-1.526
			c0.522-0.42,1.134-0.741,1.834-0.966c0.7-0.224,1.46-0.336,2.282-0.336c1.101,0,2.132,0.159,3.094,0.477s1.843,0.83,2.646,1.54
			l-1.512,2.268c-0.747-0.56-1.47-0.971-2.17-1.232c-0.7-0.261-1.396-0.392-2.086-0.392c-0.635,0-1.167,0.131-1.596,0.392
			c-0.43,0.262-0.644,0.682-0.644,1.261c0,0.262,0.051,0.476,0.154,0.644s0.266,0.317,0.49,0.448
			c0.224,0.131,0.518,0.257,0.882,0.378s0.816,0.247,1.358,0.378c1.008,0.262,1.871,0.522,2.59,0.784
			c0.718,0.262,1.306,0.56,1.764,0.896s0.793,0.724,1.008,1.162c0.214,0.439,0.322,0.966,0.322,1.582
			c0,1.438-0.532,2.572-1.596,3.402C48.974,23.028,47.527,23.443,45.698,23.443z"/>
		<path fill="#FFFFFF" d="M62.862,23.443c-1.158,0-2.166-0.257-3.024-0.771c-0.859-0.513-1.531-1.208-2.016-2.086v8.54H54.07V8.491
			h3.276v2.52c0.542-0.858,1.241-1.535,2.1-2.029c0.858-0.495,1.848-0.742,2.968-0.742c0.989,0,1.904,0.2,2.744,0.602
			c0.84,0.402,1.563,0.943,2.17,1.624c0.606,0.682,1.083,1.484,1.428,2.408c0.345,0.924,0.518,1.899,0.518,2.926
			c0,1.064-0.159,2.063-0.476,2.996c-0.318,0.934-0.761,1.746-1.33,2.437c-0.57,0.69-1.246,1.231-2.03,1.624
			C64.654,23.247,63.795,23.443,62.862,23.443z M61.603,20.251c0.56,0,1.078-0.121,1.554-0.364c0.476-0.242,0.882-0.568,1.218-0.979
			c0.336-0.41,0.597-0.887,0.784-1.428c0.187-0.542,0.28-1.102,0.28-1.681c0-0.616-0.103-1.189-0.308-1.722
			c-0.206-0.532-0.49-0.994-0.854-1.386c-0.364-0.393-0.793-0.7-1.288-0.925c-0.495-0.224-1.032-0.336-1.61-0.336
			c-0.355,0-0.719,0.062-1.092,0.183s-0.719,0.294-1.036,0.518c-0.318,0.225-0.602,0.486-0.854,0.784
			c-0.252,0.299-0.444,0.626-0.574,0.98v3.443c0.336,0.84,0.849,1.536,1.54,2.086C60.053,19.976,60.799,20.251,61.603,20.251z"/>
		<path fill="#FFFFFF" d="M80.558,11.739c-1.139,0.019-2.156,0.238-3.052,0.658c-0.896,0.42-1.54,1.05-1.932,1.89v8.876h-3.752
			V8.491h3.444v3.136c0.261-0.504,0.569-0.956,0.924-1.357c0.354-0.401,0.737-0.752,1.148-1.051c0.41-0.298,0.825-0.526,1.245-0.686
			c0.42-0.158,0.826-0.238,1.219-0.238c0.205,0,0.359,0,0.463,0c0.102,0,0.199,0.01,0.293,0.028V11.739z"/>
		<path fill="#FFFFFF" d="M82.657,6.447V2.723h3.752v3.725H82.657z M82.657,23.163V8.491h3.752v14.672H82.657z"/>
		<path fill="#FFFFFF" d="M103.433,23.163h-3.752v-8.232c0-1.176-0.205-2.034-0.616-2.575c-0.41-0.542-0.979-0.812-1.708-0.812
			c-0.373,0-0.756,0.075-1.147,0.224c-0.393,0.15-0.761,0.36-1.106,0.631s-0.657,0.593-0.938,0.966s-0.485,0.784-0.616,1.231v8.568
			h-3.752V8.491h3.388v2.716c0.541-0.934,1.325-1.661,2.353-2.184c1.026-0.522,2.184-0.784,3.472-0.784
			c0.914,0,1.661,0.168,2.24,0.504c0.578,0.336,1.026,0.774,1.344,1.316c0.317,0.541,0.536,1.157,0.658,1.848
			c0.121,0.69,0.182,1.391,0.182,2.1V23.163z"/>
		<path fill="#FFFFFF" d="M116.733,23.163l-4.257-6.356l-2.016,1.988v4.368h-3.752V2.723h3.752v12.404l5.88-6.607h4.004l-5.46,6.216
			l5.853,8.428H116.733z"/>
		<path fill="#FFFFFF" d="M122.305,2.723h3.752v15.736c0,0.542,0.131,0.962,0.393,1.26c0.261,0.299,0.634,0.448,1.12,0.448
			c0.224,0,0.471-0.037,0.741-0.112c0.271-0.074,0.527-0.168,0.771-0.279l0.504,2.855c-0.504,0.243-1.092,0.43-1.764,0.561
			c-0.672,0.13-1.279,0.195-1.82,0.195c-1.176,0-2.086-0.312-2.729-0.938c-0.645-0.625-0.967-1.517-0.967-2.674V2.723z"/>
		<path fill="#FFFFFF" d="M138.013,23.443c-1.176,0-2.239-0.201-3.191-0.603s-1.765-0.947-2.437-1.638s-1.189-1.493-1.554-2.408
			c-0.364-0.914-0.546-1.876-0.546-2.884c0-1.045,0.177-2.03,0.532-2.954c0.354-0.924,0.867-1.736,1.54-2.436
			c0.672-0.7,1.488-1.256,2.449-1.666c0.962-0.411,2.039-0.616,3.234-0.616c1.194,0,2.263,0.205,3.206,0.616
			c0.942,0.41,1.745,0.961,2.408,1.651c0.662,0.691,1.166,1.494,1.512,2.408c0.345,0.915,0.518,1.867,0.518,2.856
			c0,0.242-0.005,0.476-0.014,0.699c-0.01,0.225-0.033,0.411-0.07,0.561h-11.34c0.057,0.579,0.196,1.092,0.42,1.54
			c0.225,0.448,0.514,0.831,0.868,1.147c0.354,0.318,0.756,0.561,1.204,0.729s0.914,0.252,1.4,0.252
			c0.746,0,1.451-0.183,2.113-0.546c0.663-0.364,1.115-0.845,1.358-1.442l3.22,0.896c-0.541,1.12-1.404,2.039-2.59,2.758
			S139.655,23.443,138.013,23.443z M141.821,14.595c-0.094-1.101-0.5-1.982-1.219-2.646c-0.719-0.662-1.591-0.994-2.617-0.994
			c-0.504,0-0.976,0.089-1.414,0.266c-0.439,0.178-0.826,0.425-1.162,0.742s-0.612,0.7-0.826,1.148
			c-0.215,0.448-0.341,0.942-0.378,1.483H141.821z"/>
		<path fill="#FFFFFF" d="M153.524,23.443c-1.232,0-2.436-0.196-3.612-0.588c-1.176-0.393-2.184-0.952-3.023-1.681l1.399-2.352
			c0.896,0.635,1.769,1.115,2.618,1.441c0.85,0.327,1.694,0.49,2.534,0.49c0.746,0,1.334-0.14,1.764-0.42s0.645-0.681,0.645-1.204
			c0-0.522-0.252-0.905-0.756-1.147c-0.504-0.243-1.326-0.522-2.464-0.84c-0.952-0.262-1.765-0.514-2.437-0.757
			c-0.672-0.242-1.214-0.518-1.624-0.825c-0.411-0.309-0.71-0.663-0.896-1.064c-0.188-0.401-0.28-0.882-0.28-1.442
			c0-0.746,0.145-1.418,0.434-2.016c0.289-0.597,0.695-1.106,1.219-1.526c0.521-0.42,1.134-0.741,1.834-0.966
			c0.699-0.224,1.46-0.336,2.281-0.336c1.102,0,2.133,0.159,3.095,0.477c0.961,0.317,1.843,0.83,2.646,1.54l-1.512,2.268
			c-0.747-0.56-1.47-0.971-2.17-1.232c-0.7-0.261-1.396-0.392-2.086-0.392c-0.635,0-1.167,0.131-1.597,0.392
			c-0.43,0.262-0.644,0.682-0.644,1.261c0,0.262,0.051,0.476,0.154,0.644c0.102,0.168,0.266,0.317,0.489,0.448
			c0.225,0.131,0.519,0.257,0.883,0.378c0.363,0.121,0.815,0.247,1.357,0.378c1.008,0.262,1.871,0.522,2.59,0.784
			s1.307,0.56,1.765,0.896c0.457,0.336,0.793,0.724,1.008,1.162c0.214,0.439,0.322,0.966,0.322,1.582
			c0,1.438-0.532,2.572-1.597,3.402C156.801,23.028,155.354,23.443,153.524,23.443z"/>
	</g>
	<path fill="none" stroke="#FFFFFF" stroke-miterlimit="10" d="M29.461,8.276l1.118-3.955h-3.586l1.103-3.912h-4.161l-1.104,3.912
		h-9.31l1.103-3.912h-4.161L9.36,4.321H5.651L4.53,8.276h3.712l-2.628,9.284H1.908L0.79,21.516h3.707l-1.138,4.028h4.16l1.139-4.028
		h9.31l-1.14,4.028h4.162l1.139-4.028h3.589l1.118-3.955h-3.588l2.626-9.284H29.461z M19.088,17.561H9.777l2.625-9.284h9.311
		L19.088,17.561z"/>
</g>
<g id="Layer_4">
</g>
</svg>
