<?xml version="1.0" encoding="utf-8"?>
<!-- Generator: Adobe Illustrator 16.0.0, SVG Export Plug-In . SVG Version: 6.00 Build 0)  -->
<!DOCTYPE svg PUBLIC "-//W3C//DTD SVG 1.1//EN" "http://www.w3.org/Graphics/SVG/1.1/DTD/svg11.dtd">
<svg version="1.1" xmlns="http://www.w3.org/2000/svg" xmlns:xlink="http://www.w3.org/1999/xlink" x="0px" y="0px" width="160px"
	 height="30.744px" viewBox="0 0 160 30.744" enable-background="new 0 0 160 30.744" xml:space="preserve">
<g id="Layer_1">
</g>
<g id="Layer_2" display="none">
</g>
<g id="Layer_5">
</g>
<g id="Layer_3">
	<g>
		<path fill="#FFFFFF" d="M58.113,23.418h-3.83v-8.401c0-1.181-0.219-2.053-0.656-2.615c-0.438-0.562-1.058-0.843-1.857-0.843
			c-0.344,0-0.706,0.076-1.086,0.229c-0.382,0.153-0.744,0.367-1.086,0.644c-0.343,0.275-0.658,0.604-0.943,0.985
			c-0.286,0.382-0.496,0.801-0.628,1.257v8.745h-3.829V2.557h3.829v8.659c0.553-0.973,1.301-1.719,2.244-2.244
			c0.942-0.523,1.986-0.785,3.129-0.785c0.971,0,1.761,0.167,2.372,0.5c0.609,0.334,1.085,0.776,1.429,1.329
			c0.343,0.553,0.581,1.182,0.714,1.886c0.133,0.705,0.2,1.429,0.2,2.172V23.418z"/>
		<path fill="#FFFFFF" d="M66.971,23.704c-0.723,0-1.399-0.119-2.028-0.357c-0.628-0.237-1.172-0.571-1.628-1
			c-0.458-0.429-0.815-0.929-1.072-1.5c-0.258-0.572-0.386-1.2-0.386-1.887c0-0.705,0.157-1.357,0.471-1.957
			c0.315-0.601,0.752-1.109,1.315-1.529c0.562-0.419,1.233-0.747,2.015-0.985c0.78-0.238,1.637-0.357,2.572-0.357
			c0.667,0,1.318,0.057,1.957,0.172c0.638,0.113,1.206,0.275,1.701,0.485v-0.857c0-0.99-0.281-1.753-0.844-2.286
			c-0.562-0.533-1.395-0.801-2.5-0.801c-0.799,0-1.581,0.144-2.343,0.429c-0.763,0.286-1.543,0.706-2.343,1.258l-1.172-2.43
			c1.925-1.275,4.001-1.914,6.23-1.914c2.153,0,3.824,0.529,5.016,1.586c1.19,1.058,1.786,2.587,1.786,4.587v4.658
			c0,0.399,0.072,0.686,0.214,0.857c0.143,0.171,0.376,0.267,0.7,0.286v3.257c-0.647,0.133-1.21,0.2-1.686,0.2
			c-0.725,0-1.282-0.162-1.672-0.485c-0.391-0.324-0.633-0.753-0.729-1.286l-0.085-0.828c-0.667,0.876-1.477,1.542-2.429,2
			C69.077,23.476,68.058,23.704,66.971,23.704z M68.058,20.903c0.647,0,1.263-0.114,1.843-0.343
			c0.582-0.229,1.034-0.533,1.357-0.914c0.42-0.324,0.63-0.687,0.63-1.086v-1.715c-0.458-0.172-0.954-0.31-1.487-0.414
			c-0.534-0.105-1.047-0.158-1.543-0.158c-0.991,0-1.801,0.225-2.429,0.673c-0.628,0.447-0.943,1.014-0.943,1.7
			c0,0.647,0.248,1.186,0.744,1.613C66.724,20.688,67.333,20.903,68.058,20.903z"/>
		<path fill="#FFFFFF" d="M86.375,23.704c-1.257,0-2.486-0.2-3.686-0.601c-1.2-0.399-2.229-0.972-3.086-1.715l1.429-2.4
			c0.914,0.647,1.805,1.139,2.672,1.472c0.866,0.334,1.729,0.5,2.586,0.5c0.762,0,1.362-0.143,1.8-0.429
			c0.438-0.285,0.657-0.694,0.657-1.228c0-0.534-0.257-0.925-0.771-1.172c-0.515-0.248-1.353-0.534-2.515-0.857
			c-0.971-0.268-1.801-0.523-2.486-0.771c-0.685-0.248-1.239-0.529-1.658-0.843c-0.418-0.315-0.724-0.677-0.914-1.086
			c-0.191-0.41-0.286-0.901-0.286-1.473c0-0.762,0.147-1.447,0.443-2.058c0.295-0.609,0.709-1.129,1.243-1.558
			s1.158-0.757,1.872-0.985s1.49-0.343,2.33-0.343c1.122,0,2.175,0.162,3.156,0.485c0.981,0.324,1.882,0.848,2.701,1.572
			l-1.543,2.314c-0.763-0.572-1.501-0.99-2.215-1.258c-0.715-0.267-1.425-0.399-2.129-0.399c-0.647,0-1.191,0.133-1.629,0.399
			c-0.438,0.268-0.658,0.696-0.658,1.286c0,0.267,0.053,0.485,0.158,0.658c0.104,0.17,0.271,0.323,0.5,0.456
			c0.229,0.134,0.528,0.263,0.9,0.387c0.372,0.123,0.833,0.252,1.386,0.386c1.028,0.267,1.91,0.533,2.644,0.8
			c0.733,0.268,1.333,0.571,1.801,0.915c0.467,0.343,0.809,0.737,1.028,1.186c0.219,0.447,0.329,0.985,0.329,1.614
			c0,1.468-0.544,2.625-1.63,3.473C89.72,23.28,88.242,23.704,86.375,23.704z"/>
		<path fill="#FFFFFF" d="M110.267,23.418h-3.83v-8.401c0-1.181-0.219-2.053-0.657-2.615c-0.438-0.562-1.058-0.843-1.857-0.843
			c-0.344,0-0.705,0.076-1.086,0.229c-0.382,0.153-0.743,0.367-1.086,0.644c-0.343,0.275-0.657,0.604-0.943,0.985
			c-0.286,0.382-0.496,0.801-0.629,1.257v8.745H96.35V2.557h3.828v8.659c0.553-0.973,1.301-1.719,2.244-2.244
			c0.942-0.523,1.986-0.785,3.129-0.785c0.972,0,1.762,0.167,2.372,0.5c0.609,0.334,1.085,0.776,1.429,1.329
			c0.343,0.553,0.581,1.182,0.715,1.886c0.133,0.705,0.2,1.429,0.2,2.172V23.418z"/>
		<path fill="#FFFFFF" d="M123.869,22.646c-0.515,0.229-1.143,0.457-1.886,0.686c-0.743,0.229-1.524,0.343-2.344,0.343
			c-0.533,0-1.033-0.066-1.5-0.199s-0.876-0.348-1.229-0.644c-0.353-0.295-0.633-0.675-0.843-1.143
			c-0.21-0.467-0.313-1.033-0.313-1.7v-8.603h-1.973V8.444h1.973V3.586h3.829v4.858h3.144v2.942h-3.144v7.316
			c0,0.533,0.139,0.909,0.414,1.129s0.615,0.329,1.015,0.329s0.79-0.067,1.172-0.201c0.381-0.133,0.686-0.247,0.915-0.343
			L123.869,22.646z"/>
		<path fill="#FFFFFF" d="M131.385,23.704c-0.724,0-1.4-0.119-2.028-0.357c-0.629-0.237-1.173-0.571-1.629-1
			c-0.458-0.429-0.815-0.929-1.071-1.5c-0.258-0.572-0.387-1.2-0.387-1.887c0-0.705,0.157-1.357,0.471-1.957
			c0.315-0.601,0.753-1.109,1.315-1.529c0.562-0.419,1.233-0.747,2.015-0.985c0.78-0.238,1.638-0.357,2.572-0.357
			c0.666,0,1.318,0.057,1.957,0.172c0.639,0.113,1.205,0.275,1.701,0.485v-0.857c0-0.99-0.281-1.753-0.844-2.286
			c-0.562-0.533-1.396-0.801-2.501-0.801c-0.799,0-1.58,0.144-2.343,0.429c-0.763,0.286-1.543,0.706-2.344,1.258l-1.172-2.43
			c1.925-1.275,4.001-1.914,6.23-1.914c2.153,0,3.824,0.529,5.016,1.586c1.189,1.058,1.786,2.587,1.786,4.587v4.658
			c0,0.399,0.071,0.686,0.214,0.857c0.144,0.171,0.376,0.267,0.7,0.286v3.257c-0.647,0.133-1.21,0.2-1.686,0.2
			c-0.725,0-1.281-0.162-1.672-0.485c-0.392-0.324-0.634-0.753-0.729-1.286l-0.085-0.828c-0.667,0.876-1.477,1.542-2.429,2
			C133.49,23.476,132.471,23.704,131.385,23.704z M132.471,20.903c0.647,0,1.263-0.114,1.843-0.343
			c0.582-0.229,1.034-0.533,1.357-0.914c0.42-0.324,0.63-0.687,0.63-1.086v-1.715c-0.458-0.172-0.953-0.31-1.487-0.414
			c-0.533-0.105-1.047-0.158-1.542-0.158c-0.992,0-1.801,0.225-2.43,0.673c-0.628,0.447-0.943,1.014-0.943,1.7
			c0,0.647,0.248,1.186,0.744,1.613C131.137,20.688,131.746,20.903,132.471,20.903z"/>
		<path fill="#FFFFFF" d="M150.989,23.504c-1.011,0-1.925-0.199-2.744-0.601c-0.819-0.399-1.529-0.947-2.129-1.643
			c-0.601-0.695-1.062-1.501-1.387-2.415c-0.323-0.914-0.485-1.887-0.485-2.914c0-1.087,0.172-2.096,0.515-3.03
			c0.343-0.933,0.818-1.752,1.429-2.457c0.609-0.705,1.343-1.258,2.2-1.657c0.857-0.401,1.801-0.601,2.829-0.601
			c1.162,0,2.182,0.262,3.059,0.785c0.875,0.525,1.6,1.225,2.171,2.102V8.444h3.344v14.26c0,1.104-0.21,2.095-0.629,2.972
			c-0.418,0.876-0.995,1.619-1.729,2.229c-0.733,0.61-1.61,1.076-2.629,1.401c-1.02,0.323-2.129,0.485-3.329,0.485
			c-1.639,0-3.015-0.271-4.129-0.814c-1.115-0.543-2.072-1.31-2.872-2.301l2.086-2.028c0.571,0.704,1.29,1.257,2.156,1.657
			c0.868,0.4,1.786,0.6,2.759,0.6c0.591,0,1.157-0.081,1.7-0.242c0.543-0.163,1.023-0.415,1.443-0.758
			c0.419-0.343,0.747-0.781,0.985-1.313c0.238-0.534,0.357-1.164,0.357-1.887v-1.887c-0.495,0.857-1.191,1.521-2.086,1.987
			C152.979,23.271,152.018,23.504,150.989,23.504z M152.275,20.446c0.418,0,0.818-0.066,1.199-0.2
			c0.381-0.133,0.734-0.314,1.058-0.543c0.324-0.229,0.609-0.495,0.857-0.801c0.248-0.305,0.438-0.628,0.571-0.971v-3.572
			c-0.343-0.876-0.882-1.582-1.614-2.115c-0.734-0.532-1.5-0.8-2.301-0.8c-0.59,0-1.124,0.129-1.601,0.386
			c-0.477,0.258-0.885,0.601-1.229,1.029c-0.343,0.429-0.605,0.919-0.786,1.471c-0.181,0.553-0.271,1.124-0.271,1.715
			c0,0.61,0.105,1.183,0.314,1.715c0.209,0.533,0.501,1,0.872,1.401c0.371,0.399,0.804,0.714,1.3,0.941
			C151.141,20.332,151.684,20.446,152.275,20.446z"/>
	</g>
	<path fill="none" stroke="#FFFFFF" stroke-miterlimit="10" d="M29.461,8.276l1.118-3.955h-3.586l1.103-3.912h-4.161l-1.104,3.912
		h-9.31l1.103-3.912h-4.161L9.36,4.321H5.651L4.53,8.276h3.712l-2.628,9.284H1.908L0.79,21.516h3.707l-1.138,4.028h4.16l1.139-4.028
		h9.31l-1.14,4.028h4.162l1.139-4.028h3.589l1.118-3.955h-3.588l2.626-9.284H29.461z M19.088,17.561H9.777l2.625-9.284h9.311
		L19.088,17.561z"/>
</g>
<g id="Layer_4">
</g>
</svg>
